<svg xmlns="http://www.w3.org/2000/svg" xmlns:xlink="http://www.w3.org/1999/xlink" width="100" zoomAndPan="magnify" viewBox="0 0 75 74.999997" height="100" preserveAspectRatio="xMidYMid meet" version="1.2"><defs><clipPath id="89d887a592"><path d="M 4.3125 5.90625 L 67.3125 5.90625 L 67.3125 68.90625 L 4.3125 68.90625 Z M 4.3125 5.90625 "/></clipPath><clipPath id="f92b50b147"><path d="M 35.8125 5.90625 C 36.847656 5.90625 37.875 5.957031 38.902344 6.058594 C 39.929688 6.160156 40.949219 6.3125 41.960938 6.511719 C 42.972656 6.714844 43.972656 6.964844 44.957031 7.261719 C 45.945312 7.5625 46.914062 7.910156 47.867188 8.304688 C 48.820312 8.699219 49.753906 9.140625 50.664062 9.625 C 51.574219 10.113281 52.457031 10.644531 53.316406 11.214844 C 54.171875 11.789062 55 12.402344 55.796875 13.058594 C 56.59375 13.710938 57.359375 14.402344 58.089844 15.132812 C 58.816406 15.863281 59.511719 16.625 60.164062 17.425781 C 60.820312 18.222656 61.433594 19.050781 62.003906 19.90625 C 62.578125 20.765625 63.109375 21.648438 63.59375 22.558594 C 64.082031 23.46875 64.523438 24.398438 64.917969 25.351562 C 65.3125 26.304688 65.660156 27.277344 65.957031 28.261719 C 66.257812 29.25 66.507812 30.25 66.710938 31.261719 C 66.910156 32.273438 67.0625 33.292969 67.164062 34.320312 C 67.265625 35.347656 67.3125 36.375 67.3125 37.40625 C 67.3125 38.4375 67.265625 39.46875 67.164062 40.496094 C 67.0625 41.519531 66.910156 42.539062 66.710938 43.550781 C 66.507812 44.5625 66.257812 45.5625 65.957031 46.550781 C 65.660156 47.539062 65.3125 48.507812 64.917969 49.460938 C 64.523438 50.414062 64.082031 51.347656 63.59375 52.257812 C 63.109375 53.167969 62.578125 54.050781 62.003906 54.90625 C 61.433594 55.765625 60.820312 56.59375 60.164062 57.390625 C 59.511719 58.1875 58.816406 58.953125 58.089844 59.679688 C 57.359375 60.410156 56.59375 61.101562 55.796875 61.757812 C 55 62.410156 54.171875 63.023438 53.316406 63.597656 C 52.457031 64.171875 51.574219 64.703125 50.664062 65.1875 C 49.753906 65.675781 48.820312 66.113281 47.867188 66.507812 C 46.914062 66.902344 45.945312 67.25 44.957031 67.550781 C 43.972656 67.851562 42.972656 68.101562 41.960938 68.300781 C 40.949219 68.503906 39.929688 68.65625 38.902344 68.753906 C 37.875 68.855469 36.847656 68.90625 35.8125 68.90625 C 34.78125 68.90625 33.753906 68.855469 32.726562 68.753906 C 31.699219 68.65625 30.679688 68.503906 29.667969 68.300781 C 28.65625 68.101562 27.65625 67.851562 26.671875 67.550781 C 25.683594 67.25 24.714844 66.902344 23.761719 66.507812 C 22.808594 66.113281 21.875 65.675781 20.964844 65.1875 C 20.054688 64.703125 19.171875 64.171875 18.3125 63.597656 C 17.457031 63.023438 16.628906 62.410156 15.832031 61.757812 C 15.035156 61.101562 14.269531 60.410156 13.539062 59.679688 C 12.8125 58.953125 12.117188 58.1875 11.464844 57.390625 C 10.808594 56.59375 10.195312 55.765625 9.625 54.90625 C 9.050781 54.050781 8.519531 53.167969 8.035156 52.257812 C 7.546875 51.347656 7.105469 50.414062 6.710938 49.460938 C 6.316406 48.507812 5.96875 47.539062 5.671875 46.550781 C 5.371094 45.5625 5.121094 44.5625 4.917969 43.550781 C 4.71875 42.539062 4.566406 41.519531 4.464844 40.496094 C 4.363281 39.46875 4.3125 38.4375 4.3125 37.40625 C 4.3125 36.375 4.363281 35.347656 4.464844 34.320312 C 4.566406 33.292969 4.71875 32.273438 4.917969 31.261719 C 5.121094 30.25 5.371094 29.25 5.671875 28.261719 C 5.96875 27.277344 6.316406 26.304688 6.710938 25.351562 C 7.105469 24.398438 7.546875 23.46875 8.035156 22.558594 C 8.519531 21.648438 9.050781 20.765625 9.625 19.90625 C 10.195312 19.050781 10.808594 18.222656 11.464844 17.425781 C 12.117188 16.625 12.8125 15.863281 13.539062 15.132812 C 14.269531 14.402344 15.035156 13.710938 15.832031 13.058594 C 16.628906 12.402344 17.457031 11.789062 18.3125 11.214844 C 19.171875 10.644531 20.054688 10.113281 20.964844 9.625 C 21.875 9.140625 22.808594 8.699219 23.761719 8.304688 C 24.714844 7.910156 25.683594 7.5625 26.671875 7.261719 C 27.65625 6.964844 28.65625 6.714844 29.667969 6.511719 C 30.679688 6.3125 31.699219 6.160156 32.726562 6.058594 C 33.753906 5.957031 34.78125 5.90625 35.8125 5.90625 Z M 35.8125 5.90625 "/></clipPath><linearGradient x1="0.00550201" gradientTransform="matrix(1.852941,0,0,1.852941,4.314452,5.907226)" y1="34.005499" x2="34.005499" gradientUnits="userSpaceOnUse" y2="0.00550044" id="b509bee457"><stop style="stop-color:#fec053;stop-opacity:1;" offset="0"/><stop style="stop-color:#fec053;stop-opacity:1;" offset="0.125"/><stop style="stop-color:#fec053;stop-opacity:1;" offset="0.140625"/><stop style="stop-color:#fec053;stop-opacity:1;" offset="0.144531"/><stop style="stop-color:#febf53;stop-opacity:1;" offset="0.148438"/><stop style="stop-color:#febd52;stop-opacity:1;" offset="0.152344"/><stop style="stop-color:#febb52;stop-opacity:1;" offset="0.15625"/><stop style="stop-color:#fdb952;stop-opacity:1;" offset="0.160156"/><stop style="stop-color:#fdb852;stop-opacity:1;" offset="0.164063"/><stop style="stop-color:#fdb652;stop-opacity:1;" offset="0.167969"/><stop style="stop-color:#fdb451;stop-opacity:1;" offset="0.171875"/><stop style="stop-color:#fdb251;stop-opacity:1;" offset="0.175781"/><stop style="stop-color:#fdb051;stop-opacity:1;" offset="0.179688"/><stop style="stop-color:#fdae51;stop-opacity:1;" offset="0.183594"/><stop style="stop-color:#fcac50;stop-opacity:1;" offset="0.1875"/><stop style="stop-color:#fcaa50;stop-opacity:1;" offset="0.191406"/><stop style="stop-color:#fca950;stop-opacity:1;" offset="0.195313"/><stop style="stop-color:#fca750;stop-opacity:1;" offset="0.199219"/><stop style="stop-color:#fca54f;stop-opacity:1;" offset="0.203125"/><stop style="stop-color:#fca34f;stop-opacity:1;" offset="0.207031"/><stop style="stop-color:#fca14f;stop-opacity:1;" offset="0.210938"/><stop style="stop-color:#fc9f4f;stop-opacity:1;" offset="0.214844"/><stop style="stop-color:#fb9d4e;stop-opacity:1;" offset="0.21875"/><stop style="stop-color:#fb9b4e;stop-opacity:1;" offset="0.222656"/><stop style="stop-color:#fb9a4e;stop-opacity:1;" offset="0.226563"/><stop style="stop-color:#fb984e;stop-opacity:1;" offset="0.230469"/><stop style="stop-color:#fb964d;stop-opacity:1;" offset="0.234375"/><stop style="stop-color:#fb944d;stop-opacity:1;" offset="0.238281"/><stop style="stop-color:#fb924d;stop-opacity:1;" offset="0.242188"/><stop style="stop-color:#fa904d;stop-opacity:1;" offset="0.246094"/><stop style="stop-color:#fa8e4c;stop-opacity:1;" offset="0.25"/><stop style="stop-color:#fa8c4c;stop-opacity:1;" offset="0.253906"/><stop style="stop-color:#fa8a4c;stop-opacity:1;" offset="0.257813"/><stop style="stop-color:#fa894c;stop-opacity:1;" offset="0.261719"/><stop style="stop-color:#fa874b;stop-opacity:1;" offset="0.265625"/><stop style="stop-color:#fa854b;stop-opacity:1;" offset="0.269531"/><stop style="stop-color:#f9834b;stop-opacity:1;" offset="0.273438"/><stop style="stop-color:#f9814b;stop-opacity:1;" offset="0.277344"/><stop style="stop-color:#f97f4a;stop-opacity:1;" offset="0.28125"/><stop style="stop-color:#f97d4a;stop-opacity:1;" offset="0.285156"/><stop style="stop-color:#f97c4a;stop-opacity:1;" offset="0.289062"/><stop style="stop-color:#f97a4a;stop-opacity:1;" offset="0.292969"/><stop style="stop-color:#f97849;stop-opacity:1;" offset="0.296875"/><stop style="stop-color:#f87649;stop-opacity:1;" offset="0.300781"/><stop style="stop-color:#f87449;stop-opacity:1;" offset="0.304688"/><stop style="stop-color:#f87249;stop-opacity:1;" offset="0.308594"/><stop style="stop-color:#f87048;stop-opacity:1;" offset="0.3125"/><stop style="stop-color:#f86e48;stop-opacity:1;" offset="0.316406"/><stop style="stop-color:#f86c48;stop-opacity:1;" offset="0.320313"/><stop style="stop-color:#f86b48;stop-opacity:1;" offset="0.324219"/><stop style="stop-color:#f76947;stop-opacity:1;" offset="0.328125"/><stop style="stop-color:#f76747;stop-opacity:1;" offset="0.332031"/><stop style="stop-color:#f76547;stop-opacity:1;" offset="0.335938"/><stop style="stop-color:#f76347;stop-opacity:1;" offset="0.339844"/><stop style="stop-color:#f76147;stop-opacity:1;" offset="0.34375"/><stop style="stop-color:#f75f46;stop-opacity:1;" offset="0.347656"/><stop style="stop-color:#f75d46;stop-opacity:1;" offset="0.351563"/><stop style="stop-color:#f65c46;stop-opacity:1;" offset="0.355469"/><stop style="stop-color:#f65a46;stop-opacity:1;" offset="0.359375"/><stop style="stop-color:#f65845;stop-opacity:1;" offset="0.363281"/><stop style="stop-color:#f65645;stop-opacity:1;" offset="0.367188"/><stop style="stop-color:#f65445;stop-opacity:1;" offset="0.371094"/><stop style="stop-color:#f65245;stop-opacity:1;" offset="0.375"/><stop style="stop-color:#f65044;stop-opacity:1;" offset="0.378906"/><stop style="stop-color:#f54e44;stop-opacity:1;" offset="0.382813"/><stop style="stop-color:#f54d44;stop-opacity:1;" offset="0.386719"/><stop style="stop-color:#f54b44;stop-opacity:1;" offset="0.390625"/><stop style="stop-color:#f54943;stop-opacity:1;" offset="0.394531"/><stop style="stop-color:#f54743;stop-opacity:1;" offset="0.398438"/><stop style="stop-color:#f54543;stop-opacity:1;" offset="0.402344"/><stop style="stop-color:#f54343;stop-opacity:1;" offset="0.40625"/><stop style="stop-color:#f44142;stop-opacity:1;" offset="0.410156"/><stop style="stop-color:#f43f42;stop-opacity:1;" offset="0.414063"/><stop style="stop-color:#f43e42;stop-opacity:1;" offset="0.417969"/><stop style="stop-color:#f43c42;stop-opacity:1;" offset="0.421875"/><stop style="stop-color:#f43a41;stop-opacity:1;" offset="0.425781"/><stop style="stop-color:#f43841;stop-opacity:1;" offset="0.429688"/><stop style="stop-color:#f43641;stop-opacity:1;" offset="0.433594"/><stop style="stop-color:#f43441;stop-opacity:1;" offset="0.4375"/><stop style="stop-color:#f33240;stop-opacity:1;" offset="0.441406"/><stop style="stop-color:#f33040;stop-opacity:1;" offset="0.445313"/><stop style="stop-color:#f32f40;stop-opacity:1;" offset="0.449219"/><stop style="stop-color:#f32d40;stop-opacity:1;" offset="0.453125"/><stop style="stop-color:#f32b3f;stop-opacity:1;" offset="0.457031"/><stop style="stop-color:#f3293f;stop-opacity:1;" offset="0.460938"/><stop style="stop-color:#f3273f;stop-opacity:1;" offset="0.464844"/><stop style="stop-color:#f2253f;stop-opacity:1;" offset="0.46875"/><stop style="stop-color:#f2233e;stop-opacity:1;" offset="0.472656"/><stop style="stop-color:#f2213e;stop-opacity:1;" offset="0.476563"/><stop style="stop-color:#f1213f;stop-opacity:1;" offset="0.480469"/><stop style="stop-color:#f02041;stop-opacity:1;" offset="0.484375"/><stop style="stop-color:#ef2043;stop-opacity:1;" offset="0.488281"/><stop style="stop-color:#ee2046;stop-opacity:1;" offset="0.492188"/><stop style="stop-color:#ec2048;stop-opacity:1;" offset="0.496094"/><stop style="stop-color:#eb204a;stop-opacity:1;" offset="0.5"/><stop style="stop-color:#ea204d;stop-opacity:1;" offset="0.503906"/><stop style="stop-color:#e8204f;stop-opacity:1;" offset="0.507813"/><stop style="stop-color:#e72052;stop-opacity:1;" offset="0.511719"/><stop style="stop-color:#e62054;stop-opacity:1;" offset="0.515625"/><stop style="stop-color:#e42057;stop-opacity:1;" offset="0.519531"/><stop style="stop-color:#e32059;stop-opacity:1;" offset="0.523438"/><stop style="stop-color:#e2205b;stop-opacity:1;" offset="0.527344"/><stop style="stop-color:#e0205e;stop-opacity:1;" offset="0.53125"/><stop style="stop-color:#df2060;stop-opacity:1;" offset="0.535156"/><stop style="stop-color:#de2063;stop-opacity:1;" offset="0.539063"/><stop style="stop-color:#dc2065;stop-opacity:1;" offset="0.542969"/><stop style="stop-color:#db2068;stop-opacity:1;" offset="0.546875"/><stop style="stop-color:#d9206a;stop-opacity:1;" offset="0.550781"/><stop style="stop-color:#d8206d;stop-opacity:1;" offset="0.554688"/><stop style="stop-color:#d7206f;stop-opacity:1;" offset="0.558594"/><stop style="stop-color:#d52071;stop-opacity:1;" offset="0.5625"/><stop style="stop-color:#d41f74;stop-opacity:1;" offset="0.566406"/><stop style="stop-color:#d31f76;stop-opacity:1;" offset="0.570313"/><stop style="stop-color:#d11f79;stop-opacity:1;" offset="0.574219"/><stop style="stop-color:#d01f7b;stop-opacity:1;" offset="0.578125"/><stop style="stop-color:#cf1f7e;stop-opacity:1;" offset="0.582031"/><stop style="stop-color:#cd1f80;stop-opacity:1;" offset="0.585938"/><stop style="stop-color:#cc1f82;stop-opacity:1;" offset="0.589844"/><stop style="stop-color:#cb1f85;stop-opacity:1;" offset="0.59375"/><stop style="stop-color:#c91f87;stop-opacity:1;" offset="0.597656"/><stop style="stop-color:#c81f8a;stop-opacity:1;" offset="0.601563"/><stop style="stop-color:#c71f8c;stop-opacity:1;" offset="0.605469"/><stop style="stop-color:#c51f8f;stop-opacity:1;" offset="0.609375"/><stop style="stop-color:#c41f91;stop-opacity:1;" offset="0.613281"/><stop style="stop-color:#c31f93;stop-opacity:1;" offset="0.617188"/><stop style="stop-color:#c11f96;stop-opacity:1;" offset="0.621094"/><stop style="stop-color:#c01f98;stop-opacity:1;" offset="0.625"/><stop style="stop-color:#be1f9b;stop-opacity:1;" offset="0.628906"/><stop style="stop-color:#bd1f9d;stop-opacity:1;" offset="0.632813"/><stop style="stop-color:#bc1fa0;stop-opacity:1;" offset="0.636719"/><stop style="stop-color:#ba1fa2;stop-opacity:1;" offset="0.640625"/><stop style="stop-color:#b91fa4;stop-opacity:1;" offset="0.644531"/><stop style="stop-color:#b81fa7;stop-opacity:1;" offset="0.648438"/><stop style="stop-color:#b620a8;stop-opacity:1;" offset="0.652344"/><stop style="stop-color:#b421a9;stop-opacity:1;" offset="0.65625"/><stop style="stop-color:#b222aa;stop-opacity:1;" offset="0.660156"/><stop style="stop-color:#b023ab;stop-opacity:1;" offset="0.664063"/><stop style="stop-color:#ae23ac;stop-opacity:1;" offset="0.667969"/><stop style="stop-color:#ac24ad;stop-opacity:1;" offset="0.671875"/><stop style="stop-color:#aa25ae;stop-opacity:1;" offset="0.675781"/><stop style="stop-color:#a926af;stop-opacity:1;" offset="0.679688"/><stop style="stop-color:#a727b0;stop-opacity:1;" offset="0.683594"/><stop style="stop-color:#a528b0;stop-opacity:1;" offset="0.6875"/><stop style="stop-color:#a329b1;stop-opacity:1;" offset="0.691406"/><stop style="stop-color:#a12ab2;stop-opacity:1;" offset="0.695313"/><stop style="stop-color:#9f2bb3;stop-opacity:1;" offset="0.699219"/><stop style="stop-color:#9d2cb4;stop-opacity:1;" offset="0.703125"/><stop style="stop-color:#9b2db5;stop-opacity:1;" offset="0.707031"/><stop style="stop-color:#992eb6;stop-opacity:1;" offset="0.710937"/><stop style="stop-color:#972fb7;stop-opacity:1;" offset="0.714844"/><stop style="stop-color:#9530b8;stop-opacity:1;" offset="0.71875"/><stop style="stop-color:#9331b8;stop-opacity:1;" offset="0.722656"/><stop style="stop-color:#9132b9;stop-opacity:1;" offset="0.726562"/><stop style="stop-color:#8f33ba;stop-opacity:1;" offset="0.730469"/><stop style="stop-color:#8e34bb;stop-opacity:1;" offset="0.734375"/><stop style="stop-color:#8c35bc;stop-opacity:1;" offset="0.738281"/><stop style="stop-color:#8a36bd;stop-opacity:1;" offset="0.742188"/><stop style="stop-color:#8837be;stop-opacity:1;" offset="0.746094"/><stop style="stop-color:#8638bf;stop-opacity:1;" offset="0.75"/><stop style="stop-color:#8439bf;stop-opacity:1;" offset="0.753906"/><stop style="stop-color:#823ac0;stop-opacity:1;" offset="0.757813"/><stop style="stop-color:#803bc1;stop-opacity:1;" offset="0.761719"/><stop style="stop-color:#7e3cc2;stop-opacity:1;" offset="0.765625"/><stop style="stop-color:#7c3cc3;stop-opacity:1;" offset="0.769531"/><stop style="stop-color:#7a3dc4;stop-opacity:1;" offset="0.773438"/><stop style="stop-color:#783ec5;stop-opacity:1;" offset="0.777344"/><stop style="stop-color:#763fc6;stop-opacity:1;" offset="0.78125"/><stop style="stop-color:#7440c7;stop-opacity:1;" offset="0.785156"/><stop style="stop-color:#7341c7;stop-opacity:1;" offset="0.789063"/><stop style="stop-color:#7142c8;stop-opacity:1;" offset="0.792969"/><stop style="stop-color:#6f43c9;stop-opacity:1;" offset="0.796875"/><stop style="stop-color:#6d44ca;stop-opacity:1;" offset="0.800781"/><stop style="stop-color:#6b45cb;stop-opacity:1;" offset="0.804688"/><stop style="stop-color:#6946cc;stop-opacity:1;" offset="0.808594"/><stop style="stop-color:#6747cd;stop-opacity:1;" offset="0.8125"/><stop style="stop-color:#6548ce;stop-opacity:1;" offset="0.816406"/><stop style="stop-color:#6349cf;stop-opacity:1;" offset="0.820313"/><stop style="stop-color:#614acf;stop-opacity:1;" offset="0.824219"/><stop style="stop-color:#5f4bd0;stop-opacity:1;" offset="0.828125"/><stop style="stop-color:#5d4cd1;stop-opacity:1;" offset="0.832031"/><stop style="stop-color:#5b4dd2;stop-opacity:1;" offset="0.835938"/><stop style="stop-color:#594ed3;stop-opacity:1;" offset="0.839844"/><stop style="stop-color:#574fd4;stop-opacity:1;" offset="0.84375"/><stop style="stop-color:#5650d5;stop-opacity:1;" offset="0.847656"/><stop style="stop-color:#5451d6;stop-opacity:1;" offset="0.851563"/><stop style="stop-color:#5351d6;stop-opacity:1;" offset="0.859375"/><stop style="stop-color:#5351d6;stop-opacity:1;" offset="0.875"/><stop style="stop-color:#5351d6;stop-opacity:1;" offset="1"/></linearGradient></defs><g id="6a690d3059"><g clip-rule="nonzero" clip-path="url(#89d887a592)"><g clip-rule="nonzero" clip-path="url(#f92b50b147)"><path style=" stroke:none;fill-rule:nonzero;fill:url(#b509bee457);" d="M 4.3125 5.90625 L 4.3125 68.90625 L 67.3125 68.90625 L 67.3125 5.90625 Z M 4.3125 5.90625 "/></g></g><path style=" stroke:none;fill-rule:nonzero;fill:#ffffff;fill-opacity:1;" d="M 43.734375 55.539062 L 27.496094 55.539062 C 21.867188 55.539062 17.285156 50.957031 17.285156 45.328125 L 17.285156 29.089844 C 17.285156 23.457031 21.867188 18.878906 27.496094 18.878906 L 43.734375 18.878906 C 49.363281 18.878906 53.945312 23.457031 53.945312 29.089844 L 53.945312 45.328125 C 53.945312 50.957031 49.363281 55.539062 43.734375 55.539062 Z M 27.496094 21.359375 C 23.234375 21.359375 19.765625 24.828125 19.765625 29.089844 L 19.765625 45.328125 C 19.765625 49.589844 23.234375 53.054688 27.496094 53.054688 L 43.734375 53.054688 C 47.996094 53.054688 51.464844 49.589844 51.464844 45.328125 L 51.464844 29.089844 C 51.464844 24.828125 47.996094 21.359375 43.734375 21.359375 Z M 27.496094 21.359375 "/><path style=" stroke:none;fill-rule:nonzero;fill:#ffffff;fill-opacity:1;" d="M 35.621094 46.292969 C 30.613281 46.292969 26.539062 42.21875 26.539062 37.214844 C 26.539062 32.207031 30.613281 28.132812 35.621094 28.132812 C 40.628906 28.132812 44.699219 32.207031 44.699219 37.214844 C 44.699219 42.21875 40.628906 46.292969 35.621094 46.292969 Z M 35.621094 30.613281 C 31.980469 30.613281 29.023438 33.574219 29.023438 37.210938 C 29.023438 40.851562 31.984375 43.8125 35.621094 43.8125 C 39.257812 43.8125 42.21875 40.851562 42.21875 37.210938 C 42.21875 33.574219 39.257812 30.613281 35.621094 30.613281 Z M 35.621094 30.613281 "/><path style=" stroke:none;fill-rule:nonzero;fill:#ffffff;fill-opacity:1;" d="M 35.613281 39.578125 C 36.921875 39.578125 37.984375 38.515625 37.984375 37.207031 C 37.984375 35.894531 36.921875 34.832031 35.613281 34.832031 C 34.304688 34.832031 33.242188 35.894531 33.242188 37.207031 C 33.242188 38.515625 34.304688 39.578125 35.613281 39.578125 Z M 35.613281 39.578125 "/></g></svg>