<svg xmlns="http://www.w3.org/2000/svg" xmlns:xlink="http://www.w3.org/1999/xlink" width="100" zoomAndPan="magnify" viewBox="0 0 75 74.999997" height="100" preserveAspectRatio="xMidYMid meet" version="1.2"><defs><clipPath id="103503316a"><path d="M 5.015625 5.015625 L 70.265625 5.015625 L 70.265625 70.265625 L 5.015625 70.265625 Z M 5.015625 5.015625 "/></clipPath></defs><g id="950df910d7"><g clip-rule="nonzero" clip-path="url(#103503316a)"><path style=" stroke:none;fill-rule:nonzero;fill:#9e1d22;fill-opacity:1;" d="M 70.257812 60.34375 C 70.257812 65.820312 65.816406 70.261719 60.34375 70.261719 L 14.925781 70.261719 C 9.449219 70.261719 5.011719 65.820312 5.011719 60.34375 L 5.011719 14.925781 C 5.011719 9.453125 9.449219 5.011719 14.925781 5.011719 L 60.34375 5.011719 C 65.816406 5.011719 70.257812 9.453125 70.257812 14.925781 Z M 70.257812 60.34375 "/></g><path style=" stroke:none;fill-rule:nonzero;fill:#ffffff;fill-opacity:1;" d="M 36.898438 17.089844 C 25.128906 17.089844 15.585938 26.628906 15.585938 38.402344 C 15.585938 47.128906 20.832031 54.625 28.34375 57.921875 C 28.28125 56.429688 28.332031 54.644531 28.710938 53.027344 C 29.121094 51.296875 31.453125 41.414062 31.453125 41.414062 C 31.453125 41.414062 30.773438 40.054688 30.773438 38.042969 C 30.773438 34.886719 32.605469 32.527344 34.886719 32.527344 C 36.820312 32.527344 37.757812 33.980469 37.757812 35.722656 C 37.757812 37.671875 36.515625 40.585938 35.878906 43.289062 C 35.34375 45.546875 37.011719 47.390625 39.238281 47.390625 C 43.277344 47.390625 45.996094 42.207031 45.996094 36.0625 C 45.996094 31.390625 42.851562 27.894531 37.128906 27.894531 C 30.664062 27.894531 26.636719 32.714844 26.636719 38.101562 C 26.636719 39.957031 27.1875 41.265625 28.042969 42.28125 C 28.4375 42.746094 28.492188 42.933594 28.347656 43.46875 C 28.25 43.863281 28.015625 44.804688 27.914062 45.179688 C 27.773438 45.71875 27.335938 45.910156 26.847656 45.710938 C 23.871094 44.5 22.484375 41.238281 22.484375 37.570312 C 22.484375 31.519531 27.589844 24.257812 37.714844 24.257812 C 45.851562 24.257812 51.210938 30.144531 51.210938 36.464844 C 51.210938 44.828125 46.558594 51.070312 39.707031 51.070312 C 37.40625 51.070312 35.242188 49.828125 34.503906 48.417969 C 34.503906 48.417969 33.265625 53.328125 33.003906 54.277344 C 32.550781 55.917969 31.667969 57.5625 30.859375 58.839844 C 32.773438 59.40625 34.796875 59.714844 36.898438 59.714844 C 48.667969 59.714844 58.207031 50.171875 58.207031 38.402344 C 58.207031 26.628906 48.667969 17.089844 36.898438 17.089844 Z M 36.898438 17.089844 "/></g></svg>