<svg xmlns="http://www.w3.org/2000/svg" xmlns:xlink="http://www.w3.org/1999/xlink" width="100" zoomAndPan="magnify" viewBox="0 0 75 74.999997" height="100" preserveAspectRatio="xMidYMid meet" version="1.2"><defs><clipPath id="01c94fbff6"><path d="M 4.046875 4.046875 L 70.796875 4.046875 L 70.796875 70.796875 L 4.046875 70.796875 Z M 4.046875 4.046875 "/></clipPath></defs><g id="4667425cb9"><path style=" stroke:none;fill-rule:nonzero;fill:#6a0572;fill-opacity:1;" d="M 32.886719 53.605469 L 38.203125 48.285156 L 47.855469 48.285156 L 54.039062 42.101562 L 54.066406 22.683594 L 24.96875 22.683594 L 24.96875 48.375 L 32.886719 48.375 Z M 44.242188 29.648438 L 48.171875 29.648438 L 48.171875 40.515625 L 44.242188 40.515625 Z M 34.445312 29.648438 L 38.375 29.648438 L 38.375 40.515625 L 34.445312 40.515625 Z M 34.445312 29.648438 "/><g clip-rule="nonzero" clip-path="url(#01c94fbff6)"><path style=" stroke:none;fill-rule:nonzero;fill:#6a0572;fill-opacity:1;" d="M 37.421875 4.046875 C 18.988281 4.046875 4.046875 18.988281 4.046875 37.421875 C 4.046875 55.859375 18.988281 70.796875 37.421875 70.796875 C 55.859375 70.796875 70.796875 55.859375 70.796875 37.421875 C 70.769531 18.988281 55.828125 4.046875 37.421875 4.046875 Z M 57.851562 44.011719 L 47.101562 54.757812 L 39.183594 54.757812 L 33.78125 60.164062 L 28.261719 60.164062 L 28.261719 54.703125 L 18.464844 54.703125 L 18.464844 25.949219 L 21.210938 18.84375 L 57.824219 18.84375 L 57.824219 44.011719 Z M 57.851562 44.011719 "/></g></g></svg>