<svg xmlns="http://www.w3.org/2000/svg" xmlns:xlink="http://www.w3.org/1999/xlink" width="100" zoomAndPan="magnify" viewBox="0 0 75 74.999997" height="100" preserveAspectRatio="xMidYMid meet" version="1.2"><defs><clipPath id="33d06c2631"><path d="M 7.5 9.703125 L 67.5 9.703125 L 67.5 69.703125 L 7.5 69.703125 Z M 7.5 9.703125 "/></clipPath></defs><g id="32af999adf"><g clip-rule="nonzero" clip-path="url(#33d06c2631)"><path style=" stroke:none;fill-rule:evenodd;fill:#000000;fill-opacity:1;" d="M 26.015625 9.703125 L 48.984375 9.703125 C 49.589844 9.703125 50.195312 9.730469 50.796875 9.792969 C 51.402344 9.851562 52 9.9375 52.59375 10.058594 C 53.191406 10.175781 53.777344 10.324219 54.359375 10.5 C 54.9375 10.675781 55.507812 10.878906 56.070312 11.113281 C 56.628906 11.34375 57.175781 11.601562 57.710938 11.886719 C 58.246094 12.175781 58.765625 12.484375 59.269531 12.824219 C 59.773438 13.160156 60.261719 13.519531 60.730469 13.90625 C 61.199219 14.289062 61.648438 14.695312 62.074219 15.125 C 62.503906 15.554688 62.910156 16.003906 63.296875 16.472656 C 63.679688 16.941406 64.042969 17.425781 64.378906 17.929688 C 64.714844 18.433594 65.027344 18.953125 65.3125 19.488281 C 65.597656 20.023438 65.855469 20.570312 66.089844 21.132812 C 66.320312 21.691406 66.523438 22.261719 66.703125 22.84375 C 66.878906 23.421875 67.023438 24.011719 67.144531 24.605469 C 67.261719 25.199219 67.351562 25.800781 67.410156 26.402344 C 67.46875 27.007812 67.5 27.609375 67.5 28.21875 L 67.5 51.183594 C 67.5 51.792969 67.46875 52.398438 67.410156 53 C 67.351562 53.605469 67.261719 54.203125 67.144531 54.796875 C 67.023438 55.390625 66.878906 55.980469 66.703125 56.558594 C 66.523438 57.140625 66.320312 57.710938 66.089844 58.269531 C 65.855469 58.832031 65.597656 59.378906 65.3125 59.914062 C 65.027344 60.449219 64.714844 60.96875 64.378906 61.472656 C 64.042969 61.976562 63.679688 62.460938 63.296875 62.929688 C 62.910156 63.398438 62.503906 63.847656 62.074219 64.277344 C 61.648438 64.707031 61.199219 65.113281 60.730469 65.5 C 60.261719 65.882812 59.773438 66.242188 59.269531 66.582031 C 58.765625 66.917969 58.246094 67.230469 57.710938 67.515625 C 57.175781 67.800781 56.628906 68.058594 56.070312 68.292969 C 55.507812 68.523438 54.9375 68.726562 54.359375 68.902344 C 53.777344 69.078125 53.191406 69.226562 52.59375 69.34375 C 52 69.464844 51.402344 69.550781 50.796875 69.613281 C 50.195312 69.671875 49.589844 69.699219 48.984375 69.699219 L 26.015625 69.699219 C 25.410156 69.699219 24.804688 69.671875 24.199219 69.613281 C 23.597656 69.550781 22.996094 69.464844 22.402344 69.34375 C 21.808594 69.226562 21.21875 69.078125 20.640625 68.902344 C 20.058594 68.726562 19.488281 68.523438 18.929688 68.292969 C 18.371094 68.058594 17.820312 67.800781 17.285156 67.515625 C 16.753906 67.230469 16.234375 66.917969 15.726562 66.582031 C 15.222656 66.242188 14.738281 65.882812 14.269531 65.5 C 13.800781 65.113281 13.351562 64.707031 12.921875 64.277344 C 12.492188 63.847656 12.085938 63.398438 11.703125 62.929688 C 11.316406 62.460938 10.957031 61.976562 10.621094 61.472656 C 10.28125 60.96875 9.972656 60.449219 9.6875 59.914062 C 9.398438 59.378906 9.140625 58.832031 8.910156 58.269531 C 8.675781 57.710938 8.472656 57.140625 8.296875 56.558594 C 8.121094 55.980469 7.972656 55.390625 7.855469 54.796875 C 7.738281 54.203125 7.648438 53.605469 7.589844 53 C 7.53125 52.398438 7.5 51.792969 7.5 51.183594 L 7.5 28.21875 C 7.5 27.609375 7.53125 27.007812 7.589844 26.402344 C 7.648438 25.800781 7.738281 25.199219 7.855469 24.605469 C 7.972656 24.011719 8.121094 23.421875 8.296875 22.84375 C 8.472656 22.261719 8.675781 21.691406 8.910156 21.132812 C 9.140625 20.570312 9.398438 20.023438 9.6875 19.488281 C 9.972656 18.953125 10.28125 18.433594 10.621094 17.929688 C 10.957031 17.425781 11.316406 16.941406 11.703125 16.472656 C 12.085938 16.003906 12.492188 15.554688 12.921875 15.125 C 13.351562 14.695312 13.800781 14.289062 14.269531 13.90625 C 14.738281 13.519531 15.222656 13.160156 15.726562 12.824219 C 16.234375 12.484375 16.753906 12.175781 17.285156 11.886719 C 17.820312 11.601562 18.371094 11.34375 18.929688 11.113281 C 19.488281 10.878906 20.058594 10.675781 20.640625 10.5 C 21.21875 10.324219 21.808594 10.175781 22.402344 10.058594 C 22.996094 9.9375 23.597656 9.851562 24.199219 9.792969 C 24.804688 9.730469 25.410156 9.703125 26.015625 9.703125 Z M 26.015625 9.703125 "/></g><path style=" stroke:none;fill-rule:nonzero;fill:#fefefe;fill-opacity:1;" d="M 36.515625 42.078125 L 35.007812 39.914062 L 22.980469 22.714844 L 28.160156 22.714844 L 37.863281 36.597656 L 39.375 38.757812 L 51.988281 56.800781 L 46.8125 56.800781 Z M 41.132812 36.710938 L 55.355469 20.179688 L 51.984375 20.179688 L 39.636719 34.535156 L 29.773438 20.179688 L 18.398438 20.179688 L 33.3125 41.886719 L 18.398438 59.222656 L 21.769531 59.222656 L 34.808594 44.0625 L 45.226562 59.222656 L 56.601562 59.222656 Z M 41.132812 36.710938 "/></g></svg>